<svg width="109" height="98" viewBox="0 0 109 98" fill="none" xmlns="http://www.w3.org/2000/svg">
<path d="M3.53628 0.000290372C3.02677 -0.00628105 2.52199 0.0987586 2.0574 0.308031C1.5928 0.517303 1.17965 0.825735 0.846943 1.21168C0.514236 1.59761 0.270043 2.0517 0.131508 2.54206C-0.00702728 3.03242 -0.0365457 3.54716 0.045025 4.05014L14.8654 94.0197C15.05 95.1207 15.6167 96.1214 16.4659 96.846C17.3151 97.5707 18.3924 97.973 19.5087 97.9822H90.6081C91.4449 97.993 92.2577 97.7028 92.8986 97.1646C93.5394 96.6263 93.9655 95.8757 94.0993 95.0496L108.955 4.08505C109.036 3.58207 109.007 3.06733 108.868 2.57698C108.73 2.08662 108.485 1.63253 108.153 1.24659C107.82 0.860649 107.407 0.552217 106.942 0.342944C106.478 0.133672 105.973 0.0286323 105.463 0.0352037L3.53628 0.000290372ZM65.9424 65.0248H43.2493L37.1047 32.9402H71.4411L65.9424 65.0248Z" fill="#B4B4B4"/>
<path d="M104.206 32.9404H71.4408L65.9421 65.025H43.249L16.4536 96.8478C17.3029 97.5822 18.3857 97.9905 19.5085 97.9999H90.6252C91.4621 98.0107 92.2749 97.7205 92.9157 97.1822C93.5565 96.6439 93.9827 95.8934 94.1165 95.0672L104.206 32.9404Z" fill="url(#paint0_linear_6076_1131)"/>
<defs>
<linearGradient id="paint0_linear_6076_1131" x1="111.782" y1="41.9129" x2="57.6329" y2="84.192" gradientUnits="userSpaceOnUse">
<stop offset="0.18" stop-color="#B4B4B4"/>
<stop offset="1" stop-color="#B4B4B4"/>
</linearGradient>
</defs>
</svg>
