<svg width="98" height="98" viewBox="0 0 98 98" fill="none" xmlns="http://www.w3.org/2000/svg">
<g clip-path="url(#clip0_6076_1001)">
<path d="M96.3524 39.1357L96.2145 38.7835L82.8927 4.02414C82.6225 3.34134 82.1433 2.76143 81.5237 2.36732C80.9001 1.97311 80.1694 1.7823 79.4327 1.82125C78.6959 1.8602 77.9894 2.12699 77.4108 2.58476C76.8381 3.04414 76.4247 3.67501 76.2287 4.38245L67.2249 31.948H30.7812L21.7744 4.38551C21.5819 3.67314 21.1684 3.04022 20.5933 2.57792C20.0181 2.11561 19.3111 1.84779 18.574 1.81301C17.8394 1.77425 17.111 1.96592 16.4906 2.36123C15.8701 2.75655 15.3887 3.33578 15.1134 4.01801L1.77317 38.8325L1.63536 39.1786C-0.279007 44.192 -0.513779 49.6916 0.966356 54.8499C2.44649 60.0083 5.5615 64.5466 9.84286 67.7823L9.89186 67.8191L10.0082 67.9109L30.3279 83.1224L40.3729 90.7296L46.4795 95.354C47.1971 95.8958 48.0717 96.189 48.9709 96.189C49.87 96.189 50.7447 95.8958 51.4622 95.354L57.5689 90.7296L67.62 83.1224L88.056 67.8191L88.1112 67.7793C92.4065 64.5461 95.5333 60.0032 97.0194 54.8366C98.5055 49.6699 98.2703 44.16 96.3493 39.1388L96.3524 39.1357Z" fill="#B4B4B4"/>
<path d="M96.3523 39.1356L96.2145 38.7834C89.7166 40.1225 83.5935 42.8767 78.2805 46.8501L49.0244 69.0226C55.2417 73.7226 61.4607 78.4204 67.6812 83.1162L88.1172 67.8129L88.1754 67.7731C92.4593 64.5311 95.5733 59.9846 97.0481 54.8187C98.523 49.6529 98.2788 44.1476 96.3523 39.1326V39.1356Z" fill="#B4B4B4"/>
<path d="M30.3433 83.1162L40.3729 90.7265L46.4796 95.3509C47.1971 95.8927 48.0718 96.1858 48.9709 96.1858C49.8701 96.1858 50.7447 95.8927 51.4623 95.3509L57.5689 90.7265L67.62 83.1193C67.62 83.1193 58.9378 76.5655 48.9633 69.0226L30.3433 83.1193V83.1162Z" fill="#B4B4B4"/>
<path d="M19.707 46.8715C14.3965 42.8965 8.27381 40.1431 1.77611 38.808L1.6383 39.154C-0.281246 44.1703 -0.518744 49.6744 0.961581 54.8373C2.44191 60.0002 5.55988 64.5423 9.8458 67.7792L9.8948 67.816L10.0112 67.9079L30.3309 83.1193L49.0274 69.0226L19.707 46.8715Z" fill="#B4B4B4"/>
</g>
<defs>
<clipPath id="clip0_6076_1001">
<rect width="98" height="98" fill="white"/>
</clipPath>
</defs>
</svg>
