<svg width="98" height="98" viewBox="0 0 98 98" fill="none" xmlns="http://www.w3.org/2000/svg">
<g clip-path="url(#clip0_6076_999)">
<path d="M1.2009 60.2923C0.982852 59.3628 2.09023 58.7773 2.76535 59.4525L38.5475 95.2346C39.2226 95.9097 38.6372 97.0171 37.7077 96.7991C19.6505 92.5631 5.43683 78.3495 1.2009 60.2923ZM0.00185352 45.9513C-0.0154374 46.2289 0.0889482 46.5 0.285634 46.6967L51.3033 97.7143C51.5 97.911 51.771 98.0156 52.0487 97.9981C54.3705 97.8535 56.6486 97.5473 58.8718 97.0907C59.621 96.9369 59.8813 96.0163 59.3405 95.4756L2.52443 38.6595C1.98361 38.1187 1.06308 38.3789 0.90922 39.1282C0.452624 41.3514 0.146467 43.6295 0.00185352 45.9513ZM4.12671 29.1113C3.96355 29.4776 4.04666 29.9057 4.33021 30.1893L67.8107 93.6697C68.0943 93.9534 68.5224 94.0365 68.8887 93.8733C70.6391 93.0936 72.3355 92.2144 73.9705 91.243C74.5116 90.9215 74.5951 90.178 74.15 89.7331L8.26695 23.85C7.82194 23.4049 7.07849 23.4884 6.75702 24.0295C5.78553 25.6645 4.90636 27.3609 4.12671 29.1113ZM12.4055 17.7125C12.0428 17.3498 12.0204 16.7681 12.3621 16.3855C21.3439 6.33012 34.4092 0 48.9529 0C76.0408 0 98 21.9591 98 49.0471C98 63.5908 91.6699 76.6561 81.6145 85.6379C81.232 85.9796 80.6502 85.9571 80.2874 85.5944L12.4055 17.7125Z" fill="#B4B4B4"/>
</g>
<defs>
<clipPath id="clip0_6076_999">
<rect width="98" height="98" fill="white"/>
</clipPath>
</defs>
</svg>
