<svg width="99" height="98" viewBox="0 0 99 98" fill="none" xmlns="http://www.w3.org/2000/svg">
<path d="M20.6768 61.9522C20.6768 67.6481 16.0733 72.2516 10.3775 72.2516C4.68163 72.2516 0.078125 67.6481 0.078125 61.9522C0.078125 56.2563 4.68163 51.6528 10.3775 51.6528H20.6768V61.9522Z" fill="#B4B4B4"/>
<path d="M25.8267 61.9522C25.8267 56.2563 30.4302 51.6528 36.126 51.6528C41.8219 51.6528 46.4254 56.2563 46.4254 61.9522V87.7006C46.4254 93.3965 41.8219 98 36.126 98C30.4302 98 25.8267 93.3965 25.8267 87.7006V61.9522Z" fill="#B4B4B4"/>
<path d="M36.126 20.5987C30.4302 20.5987 25.8267 15.9952 25.8267 10.2994C25.8267 4.60351 30.4302 0 36.126 0C41.8219 0 46.4254 4.60351 46.4254 10.2994V20.5987H36.126Z" fill="#B4B4B4"/>
<path d="M36.1258 25.8264C41.8217 25.8264 46.4252 30.4299 46.4252 36.1258C46.4252 41.8216 41.8217 46.4251 36.1258 46.4251H10.2994C4.6035 46.4251 0 41.8216 0 36.1258C0 30.4299 4.6035 25.8264 10.2994 25.8264H36.1258Z" fill="#B4B4B4"/>
<path d="M77.4014 36.1258C77.4014 30.4299 82.0049 25.8264 87.7007 25.8264C93.3966 25.8264 98.0001 30.4299 98.0001 36.1258C98.0001 41.8216 93.3966 46.4251 87.7007 46.4251H77.4014V36.1258Z" fill="#B4B4B4"/>
<path d="M72.2516 36.1258C72.2516 41.8217 67.6481 46.4252 61.9522 46.4252C56.2563 46.4252 51.6528 41.8217 51.6528 36.1258V10.2994C51.6528 4.60351 56.2563 0 61.9522 0C67.6481 0 72.2516 4.60351 72.2516 10.2994V36.1258Z" fill="#B4B4B4"/>
<path d="M61.9522 77.4012C67.6481 77.4012 72.2516 82.0047 72.2516 87.7006C72.2516 93.3965 67.6481 98 61.9522 98C56.2563 98 51.6528 93.3965 51.6528 87.7006V77.4012H61.9522Z" fill="#B4B4B4"/>
<path d="M61.9522 72.2516C56.2563 72.2516 51.6528 67.6481 51.6528 61.9522C51.6528 56.2563 56.2563 51.6528 61.9522 51.6528H87.7786C93.4745 51.6528 98.078 56.2563 98.078 61.9522C98.078 67.6481 93.4745 72.2516 87.7786 72.2516H61.9522Z" fill="#B4B4B4"/>
</svg>
